<svg width="1600" height="900" viewBox="0 0 1600 900" fill="none" xmlns="http://www.w3.org/2000/svg">
  <defs>
    <linearGradient id="paint0" x1="248" y1="82" x2="1372" y2="780" gradientUnits="userSpaceOnUse">
      <stop stop-color="#38BDF8"/>
      <stop offset="0.46" stop-color="#0EA5E9"/>
      <stop offset="1" stop-color="#FB7185"/>
    </linearGradient>
    <radialGradient id="paint1" cx="0" cy="0" r="1" gradientUnits="userSpaceOnUse" gradientTransform="translate(1258 208) rotate(131.332) scale(318.444 397.734)">
      <stop stop-color="#FB7185" stop-opacity="0.56"/>
      <stop offset="1" stop-color="#FB7185" stop-opacity="0"/>
    </radialGradient>
    <radialGradient id="paint2" cx="0" cy="0" r="1" gradientUnits="userSpaceOnUse" gradientTransform="translate(285 662) rotate(40.735) scale(462.971 481.105)">
      <stop stop-color="#22D3EE" stop-opacity="0.58"/>
      <stop offset="1" stop-color="#22D3EE" stop-opacity="0"/>
    </radialGradient>
    <filter id="blur0" x="0" y="0" width="1600" height="900" filterUnits="userSpaceOnUse" color-interpolation-filters="sRGB">
      <feGaussianBlur stdDeviation="24"/>
    </filter>
  </defs>
  <rect width="1600" height="900" fill="#020817"/>
  <g opacity="0.32" filter="url(#blur0)">
    <circle cx="1300" cy="192" r="220" fill="url(#paint1)"/>
    <circle cx="318" cy="674" r="248" fill="url(#paint2)"/>
  </g>
  <g opacity="0.32">
    <path d="M0 152H1600" stroke="url(#paint0)"/>
    <path d="M0 252H1600" stroke="url(#paint0)"/>
    <path d="M0 352H1600" stroke="url(#paint0)"/>
    <path d="M0 452H1600" stroke="url(#paint0)"/>
    <path d="M0 552H1600" stroke="url(#paint0)"/>
    <path d="M0 652H1600" stroke="url(#paint0)"/>
    <path d="M160 0V900" stroke="url(#paint0)"/>
    <path d="M360 0V900" stroke="url(#paint0)"/>
    <path d="M560 0V900" stroke="url(#paint0)"/>
    <path d="M760 0V900" stroke="url(#paint0)"/>
    <path d="M960 0V900" stroke="url(#paint0)"/>
    <path d="M1160 0V900" stroke="url(#paint0)"/>
    <path d="M1360 0V900" stroke="url(#paint0)"/>
  </g>
  <g opacity="0.92">
    <path d="M-48 586C86 553 164 430 294 403C432 374 494 484 618 520C764 563 840 488 958 442C1115 382 1201 415 1326 500C1424 566 1497 603 1646 616" stroke="url(#paint0)" stroke-width="4" stroke-linecap="round"/>
    <path d="M-34 668C97 639 173 528 305 509C454 487 520 579 643 606C758 631 835 588 940 536C1060 477 1188 481 1289 530C1395 582 1487 663 1634 678" stroke="#7DD3FC" stroke-width="2.5" stroke-linecap="round" stroke-dasharray="6 14"/>
    <path d="M164 270C273 216 420 179 526 228C603 264 634 338 720 360C851 393 983 285 1114 305C1225 322 1309 431 1419 457" stroke="#38BDF8" stroke-width="3" stroke-linecap="round"/>
  </g>
  <g fill="#E2E8F0" opacity="0.85">
    <circle cx="294" cy="403" r="7"/>
    <circle cx="618" cy="520" r="9"/>
    <circle cx="958" cy="442" r="8"/>
    <circle cx="1326" cy="500" r="10"/>
    <circle cx="720" cy="360" r="8"/>
    <circle cx="1114" cy="305" r="9"/>
  </g>
</svg>
