<svg width="860" height="860" viewBox="0 0 860 860" fill="none" xmlns="http://www.w3.org/2000/svg">
  <defs>
    <linearGradient id="ring" x1="134" y1="124" x2="714" y2="736" gradientUnits="userSpaceOnUse">
      <stop stop-color="#22D3EE"/>
      <stop offset="1" stop-color="#FB7185"/>
    </linearGradient>
  </defs>
  <rect width="860" height="860" rx="430" fill="url(#ring)" fill-opacity="0.05"/>
  <circle cx="430" cy="430" r="292" stroke="url(#ring)" stroke-width="2.5" stroke-dasharray="10 18"/>
  <circle cx="430" cy="430" r="214" stroke="#38BDF8" stroke-opacity="0.48" stroke-width="2"/>
  <circle cx="430" cy="430" r="136" stroke="#FB7185" stroke-opacity="0.44" stroke-width="2"/>
  <circle cx="430" cy="430" r="24" fill="#E2E8F0"/>
  <g opacity="0.9">
    <circle cx="430" cy="138" r="14" fill="#22D3EE"/>
    <circle cx="646" cy="430" r="14" fill="#F472B6"/>
    <circle cx="430" cy="644" r="14" fill="#34D399"/>
    <circle cx="216" cy="430" r="14" fill="#7DD3FC"/>
  </g>
  <path d="M430 138V214" stroke="#E2E8F0" stroke-opacity="0.5" stroke-width="2"/>
  <path d="M646 430H570" stroke="#E2E8F0" stroke-opacity="0.5" stroke-width="2"/>
  <path d="M430 644V568" stroke="#E2E8F0" stroke-opacity="0.5" stroke-width="2"/>
  <path d="M216 430H292" stroke="#E2E8F0" stroke-opacity="0.5" stroke-width="2"/>
  <path d="M270 260L334 324" stroke="#E2E8F0" stroke-opacity="0.35" stroke-width="2"/>
  <path d="M590 260L526 324" stroke="#E2E8F0" stroke-opacity="0.35" stroke-width="2"/>
  <path d="M270 600L334 536" stroke="#E2E8F0" stroke-opacity="0.35" stroke-width="2"/>
  <path d="M590 600L526 536" stroke="#E2E8F0" stroke-opacity="0.35" stroke-width="2"/>
</svg>
